<?xml version="1.0" encoding="utf-8"?><svg width="auto" height="4720" style="overflow:visible " version="1.1" xmlns="http://www.w3.org/2000/svg"><rect x="20" y="20" width="200" height="40" style="fill:white;stroke:black;stroke-width:1" /><text x="30" y="30" font-size="10" style="fill:blue">xs:schema</text><text x="30" y="40" font-size="8" style="fill:black">elementFormDefault: qualified</text><text x="30" y="50" font-size="8" style="fill:black">xmlns:xs: http://www.w3.org/2001/XMLSchema</text><rect x="240" y="20" width="200" height="40" style="fill:white;stroke:black;stroke-width:1" /><text x="250" y="30" font-size="10" style="fill:blue">xs:element</text><path d="M220 40 C240 40 220 40 240 40" style="fill:transparent;stroke:black" /><text x="250" y="40" font-size="8" style="fill:black">name: rutas</text><rect x="460" y="20" width="200" height="40" style="fill:white;stroke:black;stroke-width:1" /><text x="470" y="30" font-size="10" style="fill:blue">xs:complexType</text><path d="M440 40 C460 40 440 40 460 40" style="fill:transparent;stroke:black" /><rect x="680" y="20" width="200" height="40" style="fill:white;stroke:black;stroke-width:1" /><text x="690" y="30" font-size="10" style="fill:blue">xs:sequence</text><path d="M660 40 C680 40 660 40 680 40" style="fill:transparent;stroke:black" /><text x="690" y="40" font-size="8" style="fill:black">minOccurs: 1</text><text x="690" y="50" font-size="8" style="fill:black">maxOccurs: unbounded</text><rect x="900" y="20" width="200" height="40" style="fill:white;stroke:black;stroke-width:1" /><text x="910" y="30" font-size="10" style="fill:blue">xs:element</text><path d="M880 40 C900 40 880 40 900 40" style="fill:transparent;stroke:black" /><text x="910" y="40" font-size="8" style="fill:black">minOccurs: 5</text><text x="910" y="50" font-size="8" style="fill:black">maxOccurs: unbounded</text><text x="910" y="60" font-size="8" style="fill:black">ref: ruta</text><rect x="240" y="220" width="200" height="40" style="fill:white;stroke:black;stroke-width:1" /><text x="250" y="230" font-size="10" style="fill:blue">xs:element</text><path d="M220 40 C240 40 220 240 240 240" style="fill:transparent;stroke:black" /><text x="250" y="240" font-size="8" style="fill:black">name: ruta</text><rect x="460" y="220" width="200" height="40" style="fill:white;stroke:black;stroke-width:1" /><text x="470" y="230" font-size="10" style="fill:blue">xs:complexType</text><path d="M440 240 C460 240 440 240 460 240" style="fill:transparent;stroke:black" /><rect x="680" y="220" width="200" height="40" style="fill:white;stroke:black;stroke-width:1" /><text x="690" y="230" font-size="10" style="fill:blue">xs:sequence</text><path d="M660 240 C680 240 660 240 680 240" style="fill:transparent;stroke:black" /><rect x="900" y="220" width="200" height="40" style="fill:white;stroke:black;stroke-width:1" /><text x="910" y="230" font-size="10" style="fill:blue">xs:element</text><path d="M880 240 C900 240 880 240 900 240" style="fill:transparent;stroke:black" /><text x="910" y="240" font-size="8" style="fill:black">ref: tipo_ruta</text><rect x="900" y="270" width="200" height="40" style="fill:white;stroke:black;stroke-width:1" /><text x="910" y="280" font-size="10" style="fill:blue">xs:element</text><path d="M880 240 C900 240 880 290 900 290" style="fill:transparent;stroke:black" /><text x="910" y="290" font-size="8" style="fill:black">ref: medio_transporte</text><rect x="900" y="320" width="200" height="40" style="fill:white;stroke:black;stroke-width:1" /><text x="910" y="330" font-size="10" style="fill:blue">xs:element</text><path d="M880 240 C900 240 880 340 900 340" style="fill:transparent;stroke:black" /><text x="910" y="340" font-size="8" style="fill:black">minOccurs: 0</text><text x="910" y="350" font-size="8" style="fill:black">maxOccurs: 1</text><text x="910" y="360" font-size="8" style="fill:black">ref: fecha_inicio</text><rect x="900" y="370" width="200" height="40" style="fill:white;stroke:black;stroke-width:1" /><text x="910" y="380" font-size="10" style="fill:blue">xs:element</text><path d="M880 240 C900 240 880 390 900 390" style="fill:transparent;stroke:black" /><text x="910" y="390" font-size="8" style="fill:black">minOccurs: 0</text><text x="910" y="400" font-size="8" style="fill:black">maxOccurs: 1</text><text x="910" y="410" font-size="8" style="fill:black">ref: hora_inicio</text><rect x="900" y="420" width="200" height="40" style="fill:white;stroke:black;stroke-width:1" /><text x="910" y="430" font-size="10" style="fill:blue">xs:element</text><path d="M880 240 C900 240 880 440 900 440" style="fill:transparent;stroke:black" /><text x="910" y="440" font-size="8" style="fill:black">ref: tiempo_duracion</text><rect x="900" y="470" width="200" height="40" style="fill:white;stroke:black;stroke-width:1" /><text x="910" y="480" font-size="10" style="fill:blue">xs:element</text><path d="M880 240 C900 240 880 490 900 490" style="fill:transparent;stroke:black" /><text x="910" y="490" font-size="8" style="fill:black">ref: agencia_gestion</text><rect x="900" y="520" width="200" height="40" style="fill:white;stroke:black;stroke-width:1" /><text x="910" y="530" font-size="10" style="fill:blue">xs:element</text><path d="M880 240 C900 240 880 540 900 540" style="fill:transparent;stroke:black" /><text x="910" y="540" font-size="8" style="fill:black">ref: descripcion</text><rect x="900" y="570" width="200" height="40" style="fill:white;stroke:black;stroke-width:1" /><text x="910" y="580" font-size="10" style="fill:blue">xs:element</text><path d="M880 240 C900 240 880 590 900 590" style="fill:transparent;stroke:black" /><text x="910" y="590" font-size="8" style="fill:black">ref: personas_adecuadas</text><rect x="900" y="620" width="200" height="40" style="fill:white;stroke:black;stroke-width:1" /><text x="910" y="630" font-size="10" style="fill:blue">xs:element</text><path d="M880 240 C900 240 880 640 900 640" style="fill:transparent;stroke:black" /><text x="910" y="640" font-size="8" style="fill:black">ref: lugar_inicio_ruta</text><rect x="900" y="670" width="200" height="40" style="fill:white;stroke:black;stroke-width:1" /><text x="910" y="680" font-size="10" style="fill:blue">xs:element</text><path d="M880 240 C900 240 880 690 900 690" style="fill:transparent;stroke:black" /><text x="910" y="690" font-size="8" style="fill:black">ref: direccion_inicio</text><rect x="900" y="720" width="200" height="40" style="fill:white;stroke:black;stroke-width:1" /><text x="910" y="730" font-size="10" style="fill:blue">xs:element</text><path d="M880 240 C900 240 880 740 900 740" style="fill:transparent;stroke:black" /><text x="910" y="740" font-size="8" style="fill:black">ref: coordenadas_inicio</text><rect x="900" y="770" width="200" height="40" style="fill:white;stroke:black;stroke-width:1" /><text x="910" y="780" font-size="10" style="fill:blue">xs:element</text><path d="M880 240 C900 240 880 790 900 790" style="fill:transparent;stroke:black" /><text x="910" y="790" font-size="8" style="fill:black">ref: referencias</text><rect x="900" y="820" width="200" height="40" style="fill:white;stroke:black;stroke-width:1" /><text x="910" y="830" font-size="10" style="fill:blue">xs:element</text><path d="M880 240 C900 240 880 840 900 840" style="fill:transparent;stroke:black" /><text x="910" y="840" font-size="8" style="fill:black">ref: recomendacion_ruta</text><rect x="900" y="870" width="200" height="40" style="fill:white;stroke:black;stroke-width:1" /><text x="910" y="880" font-size="10" style="fill:blue">xs:element</text><path d="M880 240 C900 240 880 890 900 890" style="fill:transparent;stroke:black" /><text x="910" y="890" font-size="8" style="fill:black">ref: hitos</text><rect x="680" y="970" width="200" height="40" style="fill:white;stroke:black;stroke-width:1" /><text x="690" y="980" font-size="10" style="fill:blue">xs:attribute</text><path d="M660 240 C680 240 660 990 680 990" style="fill:transparent;stroke:black" /><text x="690" y="990" font-size="8" style="fill:black">name: nombre</text><text x="690" y="1000" font-size="8" style="fill:black">type: xs:string</text><text x="690" y="1010" font-size="8" style="fill:black">use: required</text><rect x="240" y="1120" width="200" height="40" style="fill:white;stroke:black;stroke-width:1" /><text x="250" y="1130" font-size="10" style="fill:blue">xs:element</text><path d="M220 40 C240 40 220 1140 240 1140" style="fill:transparent;stroke:black" /><text x="250" y="1140" font-size="8" style="fill:black">name: tipo_ruta</text><text x="250" y="1150" font-size="8" style="fill:black">type: xs:string</text><rect x="240" y="1170" width="200" height="40" style="fill:white;stroke:black;stroke-width:1" /><text x="250" y="1180" font-size="10" style="fill:blue">xs:element</text><path d="M220 40 C240 40 220 1190 240 1190" style="fill:transparent;stroke:black" /><text x="250" y="1190" font-size="8" style="fill:black">name: medio_transporte</text><text x="250" y="1200" font-size="8" style="fill:black">type: xs:string</text><rect x="240" y="1220" width="200" height="40" style="fill:white;stroke:black;stroke-width:1" /><text x="250" y="1230" font-size="10" style="fill:blue">xs:element</text><path d="M220 40 C240 40 220 1240 240 1240" style="fill:transparent;stroke:black" /><text x="250" y="1240" font-size="8" style="fill:black">name: fecha_inicio</text><text x="250" y="1250" font-size="8" style="fill:black">type: xs:string</text><rect x="240" y="1270" width="200" height="40" style="fill:white;stroke:black;stroke-width:1" /><text x="250" y="1280" font-size="10" style="fill:blue">xs:element</text><path d="M220 40 C240 40 220 1290 240 1290" style="fill:transparent;stroke:black" /><text x="250" y="1290" font-size="8" style="fill:black">name: hora_inicio</text><text x="250" y="1300" font-size="8" style="fill:black">type: xs:time</text><rect x="240" y="1320" width="200" height="40" style="fill:white;stroke:black;stroke-width:1" /><text x="250" y="1330" font-size="10" style="fill:blue">xs:element</text><path d="M220 40 C240 40 220 1340 240 1340" style="fill:transparent;stroke:black" /><text x="250" y="1340" font-size="8" style="fill:black">name: tiempo_duracion</text><text x="250" y="1350" font-size="8" style="fill:black">type: xs:duration</text><rect x="240" y="1370" width="200" height="40" style="fill:white;stroke:black;stroke-width:1" /><text x="250" y="1380" font-size="10" style="fill:blue">xs:element</text><path d="M220 40 C240 40 220 1390 240 1390" style="fill:transparent;stroke:black" /><text x="250" y="1390" font-size="8" style="fill:black">name: agencia_gestion</text><text x="250" y="1400" font-size="8" style="fill:black">type: xs:string</text><rect x="240" y="1420" width="200" height="40" style="fill:white;stroke:black;stroke-width:1" /><text x="250" y="1430" font-size="10" style="fill:blue">xs:element</text><path d="M220 40 C240 40 220 1440 240 1440" style="fill:transparent;stroke:black" /><text x="250" y="1440" font-size="8" style="fill:black">name: personas_adecuadas</text><text x="250" y="1450" font-size="8" style="fill:black">type: xs:string</text><rect x="240" y="1470" width="200" height="40" style="fill:white;stroke:black;stroke-width:1" /><text x="250" y="1480" font-size="10" style="fill:blue">xs:element</text><path d="M220 40 C240 40 220 1490 240 1490" style="fill:transparent;stroke:black" /><text x="250" y="1490" font-size="8" style="fill:black">name: lugar_inicio_ruta</text><text x="250" y="1500" font-size="8" style="fill:black">type: xs:string</text><rect x="240" y="1520" width="200" height="40" style="fill:white;stroke:black;stroke-width:1" /><text x="250" y="1530" font-size="10" style="fill:blue">xs:element</text><path d="M220 40 C240 40 220 1540 240 1540" style="fill:transparent;stroke:black" /><text x="250" y="1540" font-size="8" style="fill:black">name: direccion_inicio</text><text x="250" y="1550" font-size="8" style="fill:black">type: xs:string</text><rect x="240" y="1570" width="200" height="40" style="fill:white;stroke:black;stroke-width:1" /><text x="250" y="1580" font-size="10" style="fill:blue">xs:element</text><path d="M220 40 C240 40 220 1590 240 1590" style="fill:transparent;stroke:black" /><text x="250" y="1590" font-size="8" style="fill:black">name: coordenadas_inicio</text><rect x="460" y="1570" width="200" height="40" style="fill:white;stroke:black;stroke-width:1" /><text x="470" y="1580" font-size="10" style="fill:blue">xs:complexType</text><path d="M440 1590 C460 1590 440 1590 460 1590" style="fill:transparent;stroke:black" /><rect x="680" y="1570" width="200" height="40" style="fill:white;stroke:black;stroke-width:1" /><text x="690" y="1580" font-size="10" style="fill:blue">xs:sequence</text><path d="M660 1590 C680 1590 660 1590 680 1590" style="fill:transparent;stroke:black" /><rect x="900" y="1570" width="200" height="40" style="fill:white;stroke:black;stroke-width:1" /><text x="910" y="1580" font-size="10" style="fill:blue">xs:element</text><path d="M880 1590 C900 1590 880 1590 900 1590" style="fill:transparent;stroke:black" /><text x="910" y="1590" font-size="8" style="fill:black">ref: latitud</text><rect x="900" y="1620" width="200" height="40" style="fill:white;stroke:black;stroke-width:1" /><text x="910" y="1630" font-size="10" style="fill:blue">xs:element</text><path d="M880 1590 C900 1590 880 1640 900 1640" style="fill:transparent;stroke:black" /><text x="910" y="1640" font-size="8" style="fill:black">ref: longitud</text><rect x="900" y="1670" width="200" height="40" style="fill:white;stroke:black;stroke-width:1" /><text x="910" y="1680" font-size="10" style="fill:blue">xs:element</text><path d="M880 1590 C900 1590 880 1690 900 1690" style="fill:transparent;stroke:black" /><text x="910" y="1690" font-size="8" style="fill:black">ref: altitud</text><rect x="240" y="1870" width="200" height="40" style="fill:white;stroke:black;stroke-width:1" /><text x="250" y="1880" font-size="10" style="fill:blue">xs:element</text><path d="M220 40 C240 40 220 1890 240 1890" style="fill:transparent;stroke:black" /><text x="250" y="1890" font-size="8" style="fill:black">name: referencias</text><rect x="460" y="1870" width="200" height="40" style="fill:white;stroke:black;stroke-width:1" /><text x="470" y="1880" font-size="10" style="fill:blue">xs:complexType</text><path d="M440 1890 C460 1890 440 1890 460 1890" style="fill:transparent;stroke:black" /><rect x="680" y="1870" width="200" height="40" style="fill:white;stroke:black;stroke-width:1" /><text x="690" y="1880" font-size="10" style="fill:blue">xs:sequence</text><path d="M660 1890 C680 1890 660 1890 680 1890" style="fill:transparent;stroke:black" /><text x="690" y="1890" font-size="8" style="fill:black">minOccurs: 1</text><text x="690" y="1900" font-size="8" style="fill:black">maxOccurs: 1</text><rect x="900" y="1870" width="200" height="40" style="fill:white;stroke:black;stroke-width:1" /><text x="910" y="1880" font-size="10" style="fill:blue">xs:element</text><path d="M880 1890 C900 1890 880 1890 900 1890" style="fill:transparent;stroke:black" /><text x="910" y="1890" font-size="8" style="fill:black">minOccurs: 3</text><text x="910" y="1900" font-size="8" style="fill:black">maxOccurs: unbounded</text><text x="910" y="1910" font-size="8" style="fill:black">ref: referencia</text><rect x="240" y="2070" width="200" height="40" style="fill:white;stroke:black;stroke-width:1" /><text x="250" y="2080" font-size="10" style="fill:blue">xs:element</text><path d="M220 40 C240 40 220 2090 240 2090" style="fill:transparent;stroke:black" /><text x="250" y="2090" font-size="8" style="fill:black">name: recomendacion_ruta</text><rect x="460" y="2070" width="200" height="40" style="fill:white;stroke:black;stroke-width:1" /><text x="470" y="2080" font-size="10" style="fill:blue">xs:simpleType</text><path d="M440 2090 C460 2090 440 2090 460 2090" style="fill:transparent;stroke:black" /><rect x="680" y="2070" width="200" height="40" style="fill:white;stroke:black;stroke-width:1" /><text x="690" y="2080" font-size="10" style="fill:blue">xs:restriction</text><path d="M660 2090 C680 2090 660 2090 680 2090" style="fill:transparent;stroke:black" /><text x="690" y="2090" font-size="8" style="fill:black">base: xs:integer</text><rect x="900" y="2070" width="200" height="40" style="fill:white;stroke:black;stroke-width:1" /><text x="910" y="2080" font-size="10" style="fill:blue">xs:minInclusive</text><path d="M880 2090 C900 2090 880 2090 900 2090" style="fill:transparent;stroke:black" /><text x="910" y="2090" font-size="8" style="fill:black">value: 1</text><rect x="900" y="2120" width="200" height="40" style="fill:white;stroke:black;stroke-width:1" /><text x="910" y="2130" font-size="10" style="fill:blue">xs:maxInclusive</text><path d="M880 2090 C900 2090 880 2140 900 2140" style="fill:transparent;stroke:black" /><text x="910" y="2140" font-size="8" style="fill:black">value: 10</text><rect x="240" y="2320" width="200" height="40" style="fill:white;stroke:black;stroke-width:1" /><text x="250" y="2330" font-size="10" style="fill:blue">xs:element</text><path d="M220 40 C240 40 220 2340 240 2340" style="fill:transparent;stroke:black" /><text x="250" y="2340" font-size="8" style="fill:black">name: hitos</text><rect x="460" y="2320" width="200" height="40" style="fill:white;stroke:black;stroke-width:1" /><text x="470" y="2330" font-size="10" style="fill:blue">xs:complexType</text><path d="M440 2340 C460 2340 440 2340 460 2340" style="fill:transparent;stroke:black" /><rect x="680" y="2320" width="200" height="40" style="fill:white;stroke:black;stroke-width:1" /><text x="690" y="2330" font-size="10" style="fill:blue">xs:sequence</text><path d="M660 2340 C680 2340 660 2340 680 2340" style="fill:transparent;stroke:black" /><text x="690" y="2340" font-size="8" style="fill:black">minOccurs: 1</text><text x="690" y="2350" font-size="8" style="fill:black">maxOccurs: unbounded</text><rect x="900" y="2320" width="200" height="40" style="fill:white;stroke:black;stroke-width:1" /><text x="910" y="2330" font-size="10" style="fill:blue">xs:element</text><path d="M880 2340 C900 2340 880 2340 900 2340" style="fill:transparent;stroke:black" /><text x="910" y="2340" font-size="8" style="fill:black">ref: hito</text><rect x="240" y="2520" width="200" height="40" style="fill:white;stroke:black;stroke-width:1" /><text x="250" y="2530" font-size="10" style="fill:blue">xs:element</text><path d="M220 40 C240 40 220 2540 240 2540" style="fill:transparent;stroke:black" /><text x="250" y="2540" font-size="8" style="fill:black">name: referencia</text><rect x="460" y="2520" width="200" height="40" style="fill:white;stroke:black;stroke-width:1" /><text x="470" y="2530" font-size="10" style="fill:blue">xs:complexType</text><path d="M440 2540 C460 2540 440 2540 460 2540" style="fill:transparent;stroke:black" /><rect x="680" y="2520" width="200" height="40" style="fill:white;stroke:black;stroke-width:1" /><text x="690" y="2530" font-size="10" style="fill:blue">xs:simpleContent</text><path d="M660 2540 C680 2540 660 2540 680 2540" style="fill:transparent;stroke:black" /><rect x="900" y="2520" width="200" height="40" style="fill:white;stroke:black;stroke-width:1" /><text x="910" y="2530" font-size="10" style="fill:blue">xs:extension</text><path d="M880 2540 C900 2540 880 2540 900 2540" style="fill:transparent;stroke:black" /><text x="910" y="2540" font-size="8" style="fill:black">base: xs:string</text><rect x="1120" y="2520" width="200" height="40" style="fill:white;stroke:black;stroke-width:1" /><text x="1130" y="2530" font-size="10" style="fill:blue">xs:attribute</text><path d="M1100 2540 C1120 2540 1100 2540 1120 2540" style="fill:transparent;stroke:black" /><text x="1130" y="2540" font-size="8" style="fill:black">name: url</text><text x="1130" y="2550" font-size="8" style="fill:black">type: xs:string</text><text x="1130" y="2560" font-size="8" style="fill:black">use: required</text><rect x="240" y="2770" width="200" height="40" style="fill:white;stroke:black;stroke-width:1" /><text x="250" y="2780" font-size="10" style="fill:blue">xs:element</text><path d="M220 40 C240 40 220 2790 240 2790" style="fill:transparent;stroke:black" /><text x="250" y="2790" font-size="8" style="fill:black">name: hito</text><rect x="460" y="2770" width="200" height="40" style="fill:white;stroke:black;stroke-width:1" /><text x="470" y="2780" font-size="10" style="fill:blue">xs:complexType</text><path d="M440 2790 C460 2790 440 2790 460 2790" style="fill:transparent;stroke:black" /><rect x="680" y="2770" width="200" height="40" style="fill:white;stroke:black;stroke-width:1" /><text x="690" y="2780" font-size="10" style="fill:blue">xs:sequence</text><path d="M660 2790 C680 2790 660 2790 680 2790" style="fill:transparent;stroke:black" /><rect x="900" y="2770" width="200" height="40" style="fill:white;stroke:black;stroke-width:1" /><text x="910" y="2780" font-size="10" style="fill:blue">xs:element</text><path d="M880 2790 C900 2790 880 2790 900 2790" style="fill:transparent;stroke:black" /><text x="910" y="2790" font-size="8" style="fill:black">ref: nombre</text><rect x="900" y="2820" width="200" height="40" style="fill:white;stroke:black;stroke-width:1" /><text x="910" y="2830" font-size="10" style="fill:blue">xs:element</text><path d="M880 2790 C900 2790 880 2840 900 2840" style="fill:transparent;stroke:black" /><text x="910" y="2840" font-size="8" style="fill:black">ref: descripcion</text><rect x="900" y="2870" width="200" height="40" style="fill:white;stroke:black;stroke-width:1" /><text x="910" y="2880" font-size="10" style="fill:blue">xs:element</text><path d="M880 2790 C900 2790 880 2890 900 2890" style="fill:transparent;stroke:black" /><text x="910" y="2890" font-size="8" style="fill:black">ref: coordenadas</text><rect x="900" y="2920" width="200" height="40" style="fill:white;stroke:black;stroke-width:1" /><text x="910" y="2930" font-size="10" style="fill:blue">xs:element</text><path d="M880 2790 C900 2790 880 2940 900 2940" style="fill:transparent;stroke:black" /><text x="910" y="2940" font-size="8" style="fill:black">ref: distancia_hito_anterior</text><rect x="900" y="2970" width="200" height="40" style="fill:white;stroke:black;stroke-width:1" /><text x="910" y="2980" font-size="10" style="fill:blue">xs:element</text><path d="M880 2790 C900 2790 880 2990 900 2990" style="fill:transparent;stroke:black" /><text x="910" y="2990" font-size="8" style="fill:black">minOccurs: 1</text><text x="910" y="3000" font-size="8" style="fill:black">maxOccurs: 1</text><text x="910" y="3010" font-size="8" style="fill:black">ref: fotografias</text><rect x="680" y="3070" width="200" height="40" style="fill:white;stroke:black;stroke-width:1" /><text x="690" y="3080" font-size="10" style="fill:blue">xs:attribute</text><path d="M660 2790 C680 2790 660 3090 680 3090" style="fill:transparent;stroke:black" /><text x="690" y="3090" font-size="8" style="fill:black">name: numero</text><text x="690" y="3100" font-size="8" style="fill:black">type: xs:integer</text><text x="690" y="3110" font-size="8" style="fill:black">use: required</text><rect x="240" y="3220" width="200" height="40" style="fill:white;stroke:black;stroke-width:1" /><text x="250" y="3230" font-size="10" style="fill:blue">xs:element</text><path d="M220 40 C240 40 220 3240 240 3240" style="fill:transparent;stroke:black" /><text x="250" y="3240" font-size="8" style="fill:black">name: nombre</text><text x="250" y="3250" font-size="8" style="fill:black">type: xs:string</text><rect x="240" y="3270" width="200" height="40" style="fill:white;stroke:black;stroke-width:1" /><text x="250" y="3280" font-size="10" style="fill:blue">xs:element</text><path d="M220 40 C240 40 220 3290 240 3290" style="fill:transparent;stroke:black" /><text x="250" y="3290" font-size="8" style="fill:black">name: coordenadas</text><rect x="460" y="3270" width="200" height="40" style="fill:white;stroke:black;stroke-width:1" /><text x="470" y="3280" font-size="10" style="fill:blue">xs:complexType</text><path d="M440 3290 C460 3290 440 3290 460 3290" style="fill:transparent;stroke:black" /><rect x="680" y="3270" width="200" height="40" style="fill:white;stroke:black;stroke-width:1" /><text x="690" y="3280" font-size="10" style="fill:blue">xs:sequence</text><path d="M660 3290 C680 3290 660 3290 680 3290" style="fill:transparent;stroke:black" /><rect x="900" y="3270" width="200" height="40" style="fill:white;stroke:black;stroke-width:1" /><text x="910" y="3280" font-size="10" style="fill:blue">xs:element</text><path d="M880 3290 C900 3290 880 3290 900 3290" style="fill:transparent;stroke:black" /><text x="910" y="3290" font-size="8" style="fill:black">ref: latitud</text><rect x="900" y="3320" width="200" height="40" style="fill:white;stroke:black;stroke-width:1" /><text x="910" y="3330" font-size="10" style="fill:blue">xs:element</text><path d="M880 3290 C900 3290 880 3340 900 3340" style="fill:transparent;stroke:black" /><text x="910" y="3340" font-size="8" style="fill:black">ref: longitud</text><rect x="900" y="3370" width="200" height="40" style="fill:white;stroke:black;stroke-width:1" /><text x="910" y="3380" font-size="10" style="fill:blue">xs:element</text><path d="M880 3290 C900 3290 880 3390 900 3390" style="fill:transparent;stroke:black" /><text x="910" y="3390" font-size="8" style="fill:black">ref: altitud</text><rect x="240" y="3570" width="200" height="40" style="fill:white;stroke:black;stroke-width:1" /><text x="250" y="3580" font-size="10" style="fill:blue">xs:element</text><path d="M220 40 C240 40 220 3590 240 3590" style="fill:transparent;stroke:black" /><text x="250" y="3590" font-size="8" style="fill:black">name: distancia_hito_anterior</text><rect x="460" y="3570" width="200" height="40" style="fill:white;stroke:black;stroke-width:1" /><text x="470" y="3580" font-size="10" style="fill:blue">xs:complexType</text><path d="M440 3590 C460 3590 440 3590 460 3590" style="fill:transparent;stroke:black" /><rect x="680" y="3570" width="200" height="40" style="fill:white;stroke:black;stroke-width:1" /><text x="690" y="3580" font-size="10" style="fill:blue">xs:simpleContent</text><path d="M660 3590 C680 3590 660 3590 680 3590" style="fill:transparent;stroke:black" /><rect x="900" y="3570" width="200" height="40" style="fill:white;stroke:black;stroke-width:1" /><text x="910" y="3580" font-size="10" style="fill:blue">xs:extension</text><path d="M880 3590 C900 3590 880 3590 900 3590" style="fill:transparent;stroke:black" /><text x="910" y="3590" font-size="8" style="fill:black">base: xs:double</text><rect x="1120" y="3570" width="200" height="40" style="fill:white;stroke:black;stroke-width:1" /><text x="1130" y="3580" font-size="10" style="fill:blue">xs:attribute</text><path d="M1100 3590 C1120 3590 1100 3590 1120 3590" style="fill:transparent;stroke:black" /><text x="1130" y="3590" font-size="8" style="fill:black">name: medida</text><text x="1130" y="3600" font-size="8" style="fill:black">type: xs:NMTOKEN</text><text x="1130" y="3610" font-size="8" style="fill:black">use: required</text><rect x="240" y="3820" width="200" height="40" style="fill:white;stroke:black;stroke-width:1" /><text x="250" y="3830" font-size="10" style="fill:blue">xs:element</text><path d="M220 40 C240 40 220 3840 240 3840" style="fill:transparent;stroke:black" /><text x="250" y="3840" font-size="8" style="fill:black">name: fotografias</text><rect x="460" y="3820" width="200" height="40" style="fill:white;stroke:black;stroke-width:1" /><text x="470" y="3830" font-size="10" style="fill:blue">xs:complexType</text><path d="M440 3840 C460 3840 440 3840 460 3840" style="fill:transparent;stroke:black" /><rect x="680" y="3820" width="200" height="40" style="fill:white;stroke:black;stroke-width:1" /><text x="690" y="3830" font-size="10" style="fill:blue">xs:sequence</text><path d="M660 3840 C680 3840 660 3840 680 3840" style="fill:transparent;stroke:black" /><rect x="900" y="3820" width="200" height="40" style="fill:white;stroke:black;stroke-width:1" /><text x="910" y="3830" font-size="10" style="fill:blue">xs:element</text><path d="M880 3840 C900 3840 880 3840 900 3840" style="fill:transparent;stroke:black" /><text x="910" y="3840" font-size="8" style="fill:black">minOccurs: 1</text><text x="910" y="3850" font-size="8" style="fill:black">maxOccurs: 5</text><text x="910" y="3860" font-size="8" style="fill:black">ref: fotografia</text><rect x="240" y="4020" width="200" height="40" style="fill:white;stroke:black;stroke-width:1" /><text x="250" y="4030" font-size="10" style="fill:blue">xs:element</text><path d="M220 40 C240 40 220 4040 240 4040" style="fill:transparent;stroke:black" /><text x="250" y="4040" font-size="8" style="fill:black">name: fotografia</text><rect x="460" y="4020" width="200" height="40" style="fill:white;stroke:black;stroke-width:1" /><text x="470" y="4030" font-size="10" style="fill:blue">xs:complexType</text><path d="M440 4040 C460 4040 440 4040 460 4040" style="fill:transparent;stroke:black" /><rect x="680" y="4020" width="200" height="40" style="fill:white;stroke:black;stroke-width:1" /><text x="690" y="4030" font-size="10" style="fill:blue">xs:simpleContent</text><path d="M660 4040 C680 4040 660 4040 680 4040" style="fill:transparent;stroke:black" /><rect x="900" y="4020" width="200" height="40" style="fill:white;stroke:black;stroke-width:1" /><text x="910" y="4030" font-size="10" style="fill:blue">xs:extension</text><path d="M880 4040 C900 4040 880 4040 900 4040" style="fill:transparent;stroke:black" /><text x="910" y="4040" font-size="8" style="fill:black">base: xs:string</text><rect x="1120" y="4020" width="200" height="40" style="fill:white;stroke:black;stroke-width:1" /><text x="1130" y="4030" font-size="10" style="fill:blue">xs:attribute</text><path d="M1100 4040 C1120 4040 1100 4040 1120 4040" style="fill:transparent;stroke:black" /><text x="1130" y="4040" font-size="8" style="fill:black">name: url</text><text x="1130" y="4050" font-size="8" style="fill:black">type: xs:string</text><text x="1130" y="4060" font-size="8" style="fill:black">use: required</text><rect x="240" y="4270" width="200" height="40" style="fill:white;stroke:black;stroke-width:1" /><text x="250" y="4280" font-size="10" style="fill:blue">xs:element</text><path d="M220 40 C240 40 220 4290 240 4290" style="fill:transparent;stroke:black" /><text x="250" y="4290" font-size="8" style="fill:black">name: descripcion</text><text x="250" y="4300" font-size="8" style="fill:black">type: xs:string</text><rect x="240" y="4320" width="200" height="40" style="fill:white;stroke:black;stroke-width:1" /><text x="250" y="4330" font-size="10" style="fill:blue">xs:element</text><path d="M220 40 C240 40 220 4340 240 4340" style="fill:transparent;stroke:black" /><text x="250" y="4340" font-size="8" style="fill:black">name: latitud</text><text x="250" y="4350" font-size="8" style="fill:black">type: xs:string</text><rect x="240" y="4370" width="200" height="40" style="fill:white;stroke:black;stroke-width:1" /><text x="250" y="4380" font-size="10" style="fill:blue">xs:element</text><path d="M220 40 C240 40 220 4390 240 4390" style="fill:transparent;stroke:black" /><text x="250" y="4390" font-size="8" style="fill:black">name: longitud</text><text x="250" y="4400" font-size="8" style="fill:black">type: xs:string</text><rect x="240" y="4420" width="200" height="40" style="fill:white;stroke:black;stroke-width:1" /><text x="250" y="4430" font-size="10" style="fill:blue">xs:element</text><path d="M220 40 C240 40 220 4440 240 4440" style="fill:transparent;stroke:black" /><text x="250" y="4440" font-size="8" style="fill:black">name: altitud</text><rect x="460" y="4420" width="200" height="40" style="fill:white;stroke:black;stroke-width:1" /><text x="470" y="4430" font-size="10" style="fill:blue">xs:complexType</text><path d="M440 4440 C460 4440 440 4440 460 4440" style="fill:transparent;stroke:black" /><rect x="680" y="4420" width="200" height="40" style="fill:white;stroke:black;stroke-width:1" /><text x="690" y="4430" font-size="10" style="fill:blue">xs:simpleContent</text><path d="M660 4440 C680 4440 660 4440 680 4440" style="fill:transparent;stroke:black" /><rect x="900" y="4420" width="200" height="40" style="fill:white;stroke:black;stroke-width:1" /><text x="910" y="4430" font-size="10" style="fill:blue">xs:extension</text><path d="M880 4440 C900 4440 880 4440 900 4440" style="fill:transparent;stroke:black" /><text x="910" y="4440" font-size="8" style="fill:black">base: xs:string</text><rect x="1120" y="4420" width="200" height="40" style="fill:white;stroke:black;stroke-width:1" /><text x="1130" y="4430" font-size="10" style="fill:blue">xs:attribute</text><path d="M1100 4440 C1120 4440 1100 4440 1120 4440" style="fill:transparent;stroke:black" /><text x="1130" y="4440" font-size="8" style="fill:black">name: medida</text><text x="1130" y="4450" font-size="8" style="fill:black">type: xs:NMTOKEN</text><text x="1130" y="4460" font-size="8" style="fill:black">use: required</text></svg>